<svg xmlns="http://www.w3.org/2000/svg" xmlns:xlink="http://www.w3.org/1999/xlink" width="500" zoomAndPan="magnify" viewBox="0 0 375 374.999991" height="500" preserveAspectRatio="xMidYMid meet" version="1.0"><defs><g/><clipPath id="id1"><path d="M 169.8125 139.75 L 205.0625 139.75 L 205.0625 161.5 L 169.8125 161.5 Z M 169.8125 139.75 " clip-rule="nonzero"/></clipPath></defs><g clip-path="url(#id1)"><path fill="rgb(84.709167%, 63.919067%, 40.388489%)" d="M 187.433594 153.714844 C 179.023438 153.714844 171.992188 147.742188 170.238281 139.75 C 169.957031 141.03125 169.816406 142.328125 169.816406 143.644531 C 169.816406 153.507812 177.703125 161.503906 187.433594 161.503906 C 197.164062 161.503906 205.046875 153.507812 205.046875 143.644531 C 205.050781 142.332031 204.910156 141.035156 204.628906 139.75 C 202.875 147.742188 195.84375 153.714844 187.433594 153.714844 Z M 187.433594 153.714844 " fill-opacity="1" fill-rule="nonzero"/></g><g fill="rgb(20.388794%, 15.289307%, 9.799194%)" fill-opacity="1"><g transform="translate(69.15516, 210.651548)"><g><path d="M 3.3125 -34.894531 L 10.464844 -34.894531 C 18.046875 -34.894531 22.222656 -28.992188 22.222656 -18 C 22.222656 -7.007812 18.046875 -1.105469 10.464844 -1.105469 L 10.222656 -1.105469 L 10.222656 -8.015625 C 10.222656 -15.648438 3.3125 -20.304688 3.3125 -30.480469 Z M 2.207031 0 L 14.878906 0 C 22.800781 0 30.191406 -2.878906 30.191406 -18 C 30.191406 -33.121094 22.800781 -36 14.878906 -36 L 2.207031 -36 C 2.207031 -24 2.207031 -12 2.207031 0 Z M 2.207031 0 "/></g></g></g><g fill="rgb(20.388794%, 15.289307%, 9.799194%)" fill-opacity="1"><g transform="translate(101.027103, 210.651548)"><g><path d="M 5.375 -36 C 3.167969 -36 1.390625 -34.222656 1.390625 -32.015625 C 1.390625 -30.046875 2.785156 -28.414062 4.65625 -28.078125 C 4.128906 -27.695312 3.503906 -27.503906 2.832031 -27.503906 L 2.785156 -27.214844 C 3.503906 -26.832031 4.273438 -26.59375 4.992188 -26.59375 C 8.113281 -26.59375 9.742188 -30.046875 9.359375 -32.59375 C 9.070312 -34.511719 7.390625 -36 5.375 -36 Z M 5.375 -36 "/></g></g></g><g fill="rgb(20.388794%, 15.289307%, 9.799194%)" fill-opacity="1"><g transform="translate(112.019083, 210.651548)"><g><path d="M 3.3125 -34.894531 L 12.480469 -34.894531 C 19.054688 -34.894531 22.222656 -32.351562 22.222656 -27.070312 C 22.222656 -21.792969 19.054688 -19.007812 12.480469 -19.007812 L 11.761719 -19.007812 L 11.761719 -17.902344 L 12.480469 -17.902344 C 19.054688 -17.902344 22.222656 -14.640625 22.222656 -9.359375 C 22.222656 -4.03125 19.054688 -1.105469 12.480469 -1.105469 L 10.222656 -1.105469 L 10.222656 -8.015625 C 10.222656 -15.648438 3.3125 -20.304688 3.3125 -30.480469 Z M 2.207031 0 L 14.878906 0 C 22.800781 0 30.191406 -1.152344 30.191406 -9.359375 C 30.191406 -14.929688 26.734375 -17.425781 21.984375 -18.382812 C 26.734375 -19.246094 30.191406 -21.457031 30.191406 -27.070312 C 30.191406 -35.230469 22.800781 -36 14.878906 -36 C 10.65625 -36 6.433594 -36 2.207031 -36 C 2.207031 -24 2.207031 -12 2.207031 0 Z M 2.207031 0 "/></g></g></g><g fill="rgb(20.388794%, 15.289307%, 9.799194%)" fill-opacity="1"><g transform="translate(144.035026, 210.651548)"><g><path d="M 24.816406 0 L 33.265625 0 L 21.359375 -36 L 12.910156 -36 L 1.007812 0 L 9.40625 0 L 11.710938 -6.910156 L 22.511719 -6.910156 Z M 22.175781 -7.96875 L 12.097656 -7.96875 C 14.304688 -14.734375 8.878906 -20.59375 12.191406 -30.527344 L 13.441406 -34.367188 Z M 22.175781 -7.96875 "/></g></g></g><g fill="rgb(20.388794%, 15.289307%, 9.799194%)" fill-opacity="1"><g transform="translate(178.306966, 210.651548)"><g><path d="M 2.160156 -36 L 2.160156 0 L 10.175781 0 L 10.175781 -15.648438 L 11.617188 -15.648438 C 12.960938 -15.648438 13.632812 -15.265625 14.257812 -14.113281 L 21.648438 0 L 30.769531 0 L 23.425781 -14.015625 C 22.273438 -16.222656 21.167969 -16.703125 18.71875 -16.703125 L 10.609375 -16.703125 C 13.488281 -22.558594 17.761719 -27.984375 25.054688 -27.984375 L 29.761719 -27.984375 L 29.761719 -36 L 25.054688 -36 C 17.617188 -36 13.105469 -25.105469 10.175781 -18.382812 L 10.175781 -36 Z M 2.160156 -36 "/></g></g></g><g fill="rgb(20.388794%, 15.289307%, 9.799194%)" fill-opacity="1"><g transform="translate(210.898914, 210.651548)"><g><path d="M 19.726562 -7.921875 C 12.816406 -8.449219 7.535156 -12.238281 5.28125 -17.710938 C 10.945312 -20.976562 15.3125 -12.71875 21.839844 -15.359375 L 23.230469 -23.328125 C 19.824219 -21.121094 15.550781 -23.519531 11.617188 -23.472656 C 8.398438 -23.425781 6.144531 -21.457031 4.847656 -18.863281 C 4.65625 -19.535156 4.464844 -20.207031 4.367188 -20.878906 C 3.167969 -27.503906 6.144531 -36.480469 14.542969 -32.929688 C 18 -31.488281 19.488281 -27.984375 22.703125 -27.984375 L 29.566406 -27.984375 L 29.566406 -36 L 14.160156 -36 C 4.65625 -36 1.585938 -27.167969 1.585938 -19.054688 C 1.585938 -9.695312 6.433594 0 16.894531 0 C 24.097656 0 28.800781 -5.230469 31.535156 -11.953125 L 30.574219 -12.433594 C 28.414062 -8.976562 23.566406 -7.632812 19.726562 -7.921875 Z M 19.726562 -7.921875 "/></g></g></g><g fill="rgb(20.388794%, 15.289307%, 9.799194%)" fill-opacity="1"><g transform="translate(243.730856, 210.651548)"><g><path d="M 3.265625 -34.894531 L 12.433594 -34.894531 C 19.007812 -34.894531 22.175781 -32.160156 22.175781 -25.824219 C 22.175781 -19.441406 18.625 -16.703125 12.046875 -16.703125 L 11.710938 -16.703125 L 11.710938 -15.648438 C 12.960938 -15.601562 13.679688 -15.214844 14.257812 -14.113281 L 21.648438 0 L 30.769531 0 L 23.425781 -14.015625 C 22.847656 -15.070312 22.367188 -15.695312 21.695312 -16.128906 C 26.496094 -16.992188 30.144531 -19.390625 30.144531 -25.824219 C 30.144531 -35.230469 22.753906 -36 14.832031 -36 L 2.160156 -36 C 2.160156 -24 2.160156 -12 2.160156 0 L 10.175781 0 L 10.175781 -8.015625 C 10.175781 -15.648438 3.265625 -20.304688 3.265625 -30.480469 Z M 3.265625 -34.894531 "/></g></g></g><g fill="rgb(20.388794%, 15.289307%, 9.799194%)" fill-opacity="1"><g transform="translate(276.178814, 210.651548)"><g><path d="M 18.863281 -22.511719 L 28.847656 -36 L 27.503906 -36 L 17.230469 -22.128906 L 9.9375 -36 L 0.863281 -36 L 10.847656 -16.992188 L 10.847656 0 L 18.863281 0 Z M 18.863281 -22.511719 "/></g></g></g><g fill="rgb(20.388794%, 15.289307%, 9.799194%)" fill-opacity="1"><g transform="translate(118.857063, 232.55039)"><g><path d="M 3.492188 0.0859375 C 4.632812 0.0859375 5.398438 -0.433594 5.761719 -1.078125 L 5.699219 -1.128906 C 5.328125 -0.625 4.453125 -0.40625 3.828125 -0.40625 C 2.363281 -0.40625 1.414062 -1.65625 1.414062 -3.289062 C 1.414062 -4.726562 2.136719 -5.675781 3.347656 -5.675781 C 4.691406 -5.699219 5.160156 -4.570312 4.679688 -3.480469 L 4.703125 -3.480469 L 5.773438 -5.089844 C 5.398438 -5.554688 4.65625 -5.890625 3.730469 -5.890625 C 1.992188 -5.890625 0.480469 -4.679688 0.480469 -2.761719 C 0.480469 -0.875 1.957031 0.0859375 3.492188 0.0859375 Z M 3.492188 0.0859375 "/></g></g></g><g fill="rgb(20.388794%, 15.289307%, 9.799194%)" fill-opacity="1"><g transform="translate(129.609071, 232.55039)"><g><path d="M 5.953125 -0.984375 L 5.953125 -5.449219 C 5.449219 -5.746094 4.945312 -5.890625 4.175781 -5.890625 C 1.703125 -5.890625 0.480469 -4.402344 0.480469 -2.6875 C 0.480469 -0.910156 1.753906 0.0859375 3.371094 0.0859375 C 3.9375 0.0859375 4.414062 -0.0351562 4.800781 -0.238281 C 4.800781 -0.226562 4.789062 -0.226562 4.789062 -0.226562 L 6.421875 0.144531 L 6.421875 0.109375 C 6.058594 -0.132812 5.953125 -0.335938 5.953125 -0.984375 Z M 1.441406 -3.3125 C 1.441406 -4.738281 2.242188 -5.664062 3.539062 -5.664062 C 4.246094 -5.664062 4.753906 -5.363281 5.089844 -5.003906 L 5.089844 -1.140625 C 5.089844 -0.9375 5.074219 -0.78125 5.050781 -0.660156 C 4.835938 -0.394531 4.546875 -0.226562 4.03125 -0.226562 C 2.554688 -0.226562 1.441406 -1.609375 1.441406 -3.3125 Z M 1.441406 -3.3125 "/></g></g></g><g fill="rgb(20.388794%, 15.289307%, 9.799194%)" fill-opacity="1"><g transform="translate(141.069079, 232.55039)"><g><path d="M 1.65625 -1.164062 L 1.65625 -8.628906 L 1.714844 -9.058594 L -0.121094 -8.183594 L -0.121094 -8.113281 C 0.613281 -8.339844 0.792969 -8.398438 0.792969 -7.921875 L 0.792969 -0.742188 L 0.683594 0 L 2.339844 0 L 2.339844 -0.046875 C 1.738281 -0.179688 1.65625 -0.515625 1.65625 -1.164062 Z M 6.203125 0 C 5.578125 -0.3125 5.21875 -0.636719 4.414062 -1.585938 L 2.796875 -3.457031 L 3.695312 -4.367188 C 4.726562 -5.398438 5.496094 -5.6875 6 -5.746094 L 6.023438 -5.820312 L 4.007812 -5.820312 L 3.984375 -5.746094 C 4.570312 -5.652344 4.453125 -5.398438 4.222656 -5.171875 L 1.789062 -2.761719 L 2.386719 -2.761719 L 4.570312 -0.203125 L 4.570312 0 Z M 6.203125 0 "/></g></g></g><g fill="rgb(20.388794%, 15.289307%, 9.799194%)" fill-opacity="1"><g transform="translate(151.833091, 232.55039)"><g><path d="M 5.890625 -1.210938 C 5.519531 -0.683594 4.453125 -0.40625 3.78125 -0.40625 C 2.339844 -0.40625 1.429688 -1.738281 1.414062 -3.335938 L 5.003906 -3.335938 C 6.480469 -3.335938 6.167969 -5.890625 3.730469 -5.890625 C 2.015625 -5.890625 0.480469 -4.679688 0.480469 -2.746094 C 0.480469 -0.875 1.882812 0.0859375 3.40625 0.0859375 C 4.621094 0.0859375 5.59375 -0.492188 5.953125 -1.164062 Z M 3.277344 -5.664062 C 4.933594 -5.664062 5.363281 -3.574219 4.679688 -3.5625 L 1.414062 -3.527344 C 1.476562 -4.882812 2.21875 -5.664062 3.277344 -5.664062 Z M 3.277344 -5.664062 "/></g></g></g><g fill="rgb(20.388794%, 15.289307%, 9.799194%)" fill-opacity="1"><g transform="translate(162.765105, 232.55039)"><g/></g></g><g fill="rgb(20.388794%, 15.289307%, 9.799194%)" fill-opacity="1"><g transform="translate(169.725115, 232.55039)"><g><path d="M 6.984375 -5.074219 C 8.148438 -5.027344 8.855469 -4.933594 9.421875 -4.933594 L 10.222656 -4.933594 C 10.453125 -5.292969 10.738281 -5.507812 11.101562 -5.914062 C 10.320312 -5.84375 9.707031 -5.820312 8.4375 -5.820312 L 6.011719 -5.820312 C 5.796875 -5.472656 5.59375 -5.292969 5.257812 -4.933594 C 8.21875 -4.933594 9.382812 -4.609375 9.382812 -2.183594 C 9.382812 -1.117188 9.132812 -0.121094 8.0625 -0.121094 C 7.222656 -0.121094 6.683594 -0.828125 5.914062 -2.316406 L 3.839844 -6.347656 C 3.214844 -7.523438 3.742188 -8.675781 5.050781 -8.675781 C 6.179688 -8.675781 7.488281 -7.945312 6.011719 -5.820312 L 7.871094 -8.074219 C 7.714844 -8.519531 6.648438 -8.902344 5.617188 -8.902344 C 3.589844 -8.902344 2.269531 -7.402344 3.144531 -5.6875 L 3.492188 -5.003906 C 1.992188 -4.824219 0.539062 -3.757812 0.539062 -2.148438 C 0.539062 -0.757812 1.621094 0.0859375 3.179688 0.0859375 C 3.886719 0.0859375 4.632812 -0.0859375 5.304688 -0.671875 L 5.269531 -0.9375 C 4.945312 -0.300781 4.273438 -0.203125 3.898438 -0.203125 C 2.507812 -0.203125 1.367188 -1.65625 1.367188 -3.023438 C 1.367188 -4.054688 2.027344 -4.597656 2.855469 -4.597656 C 3.5625 -4.597656 3.898438 -4.152344 4.175781 -3.660156 L 4.90625 -2.21875 C 5.890625 -0.300781 6.144531 0.0976562 7.320312 0.0976562 C 9.023438 0.0976562 10.402344 -0.730469 10.402344 -2.183594 C 10.402344 -3.71875 8.929688 -4.644531 6.984375 -5.074219 Z M 6.984375 -5.074219 "/></g></g></g><g fill="rgb(20.388794%, 15.289307%, 9.799194%)" fill-opacity="1"><g transform="translate(185.925141, 232.55039)"><g/></g></g><g fill="rgb(20.388794%, 15.289307%, 9.799194%)" fill-opacity="1"><g transform="translate(192.885152, 232.55039)"><g><path d="M 3.289062 -5.890625 C 2.605469 -5.890625 1.390625 -5.773438 0.121094 -5.410156 L 0.121094 -5.363281 C 0.433594 -5.339844 0.742188 -5.257812 0.910156 -5.148438 L 0.910156 1.246094 C 0.910156 1.847656 0.792969 2.050781 0.371094 2.160156 L 0.371094 2.195312 L 2.425781 2.59375 L 2.425781 2.554688 C 1.882812 2.316406 1.777344 2.089844 1.777344 1.441406 L 1.777344 -0.15625 C 2.195312 -0.0117188 2.640625 0.0859375 3.214844 0.0859375 C 5.304688 0.0859375 6.433594 -1.296875 6.433594 -3.023438 C 6.433594 -4.667969 5.425781 -5.890625 3.289062 -5.890625 Z M 3.648438 -0.132812 C 2.953125 -0.132812 2.304688 -0.433594 1.777344 -0.78125 L 1.777344 -5.472656 C 2.101562 -5.628906 2.617188 -5.734375 3.011719 -5.734375 C 4.390625 -5.734375 5.472656 -4.476562 5.472656 -2.449219 C 5.472656 -0.660156 4.585938 -0.132812 3.648438 -0.132812 Z M 3.648438 -0.132812 "/></g></g></g><g fill="rgb(20.388794%, 15.289307%, 9.799194%)" fill-opacity="1"><g transform="translate(204.357166, 232.55039)"><g><path d="M 5.953125 -0.984375 L 5.953125 -5.449219 C 5.449219 -5.746094 4.945312 -5.890625 4.175781 -5.890625 C 1.703125 -5.890625 0.480469 -4.402344 0.480469 -2.6875 C 0.480469 -0.910156 1.753906 0.0859375 3.371094 0.0859375 C 3.9375 0.0859375 4.414062 -0.0351562 4.800781 -0.238281 C 4.800781 -0.226562 4.789062 -0.226562 4.789062 -0.226562 L 6.421875 0.144531 L 6.421875 0.109375 C 6.058594 -0.132812 5.953125 -0.335938 5.953125 -0.984375 Z M 1.441406 -3.3125 C 1.441406 -4.738281 2.242188 -5.664062 3.539062 -5.664062 C 4.246094 -5.664062 4.753906 -5.363281 5.089844 -5.003906 L 5.089844 -1.140625 C 5.089844 -0.9375 5.074219 -0.78125 5.050781 -0.660156 C 4.835938 -0.394531 4.546875 -0.226562 4.03125 -0.226562 C 2.554688 -0.226562 1.441406 -1.609375 1.441406 -3.3125 Z M 1.441406 -3.3125 "/></g></g></g><g fill="rgb(20.388794%, 15.289307%, 9.799194%)" fill-opacity="1"><g transform="translate(215.81717, 232.55039)"><g><path d="M 2.675781 0.0859375 C 4.164062 0.0859375 5.050781 -0.683594 5.050781 -1.738281 C 5.050781 -2.160156 5.003906 -3.097656 2.941406 -3.40625 C 2.21875 -3.515625 1.296875 -3.730469 1.296875 -4.644531 C 1.296875 -5.171875 1.558594 -5.710938 2.351562 -5.710938 C 3.132812 -5.710938 4.285156 -5.183594 4.246094 -4.09375 L 4.273438 -4.09375 L 4.992188 -5.21875 C 4.511719 -5.59375 3.636719 -5.890625 2.785156 -5.890625 C 1.585938 -5.890625 0.574219 -5.28125 0.574219 -4.222656 C 0.574219 -3.589844 0.949219 -2.773438 2.808594 -2.460938 C 3.695312 -2.316406 4.273438 -2.015625 4.273438 -1.1875 C 4.273438 -0.625 4.019531 -0.0859375 3.132812 -0.0859375 C 2.230469 -0.0859375 1.066406 -0.636719 1.066406 -1.679688 L 1.042969 -1.679688 L 0.421875 -0.625 C 0.9375 -0.226562 1.714844 0.0859375 2.675781 0.0859375 Z M 2.675781 0.0859375 "/></g></g></g><g fill="rgb(20.388794%, 15.289307%, 9.799194%)" fill-opacity="1"><g transform="translate(225.849186, 232.55039)"><g><path d="M 1.5 0.191406 L 1.753906 0.191406 L 3.085938 -0.214844 L 3.085938 -0.265625 L 1.753906 -0.214844 L 1.753906 -5.53125 L 3.132812 -5.53125 L 3.191406 -5.820312 L 1.753906 -5.820312 L 1.753906 -7.34375 L 1.847656 -7.800781 L -0.0585938 -6.925781 L -0.0585938 -6.851562 C 0.707031 -7.078125 0.886719 -7.117188 0.886719 -6.613281 L 0.886719 -0.828125 L 0.851562 -0.109375 Z M 1.5 0.191406 "/></g></g></g><g fill="rgb(20.388794%, 15.289307%, 9.799194%)" fill-opacity="1"><g transform="translate(233.793194, 232.55039)"><g><path d="M 3.613281 -5.878906 C 2.832031 -5.878906 2.148438 -5.375 1.871094 -4.609375 L 1.714844 -4.609375 L 1.714844 -4.992188 L 1.777344 -5.878906 L 0.121094 -5.699219 L 0.121094 -5.652344 C 0.371094 -5.628906 0.683594 -5.542969 0.851562 -5.4375 L 0.851562 -0.828125 L 0.792969 0 L 2.183594 0 C 1.824219 -0.238281 1.714844 -0.46875 1.714844 -1.117188 L 1.714844 -3.671875 C 1.847656 -4.511719 2.28125 -5.304688 2.929688 -5.304688 C 3.277344 -5.304688 3.601562 -5.089844 3.253906 -4.234375 L 3.300781 -4.234375 L 4.234375 -5.734375 C 4.007812 -5.84375 3.816406 -5.878906 3.613281 -5.878906 Z M 3.613281 -5.878906 "/></g></g></g><g fill="rgb(20.388794%, 15.289307%, 9.799194%)" fill-opacity="1"><g transform="translate(242.769206, 232.55039)"><g><path d="M 4.332031 -5.820312 L 4.332031 -5.773438 C 4.765625 -5.628906 5.269531 -5.410156 4.835938 -4.378906 L 3.433594 -1.066406 L 1.933594 -4.378906 C 1.476562 -5.410156 1.957031 -5.699219 2.554688 -5.773438 L 2.554688 -5.820312 L 0.300781 -5.820312 L 0.742188 -5.003906 L 2.988281 -0.0234375 L 2.722656 0.589844 C 2.328125 1.511719 1.523438 1.871094 0.527344 1.871094 L 0.984375 2.398438 C 2.21875 2.398438 2.578125 1.523438 2.953125 0.648438 L 5.0625 -4.367188 C 5.507812 -5.425781 5.796875 -5.628906 6.179688 -5.773438 L 6.179688 -5.820312 Z M 4.332031 -5.820312 "/></g></g></g><g fill="rgb(20.388794%, 15.289307%, 9.799194%)" fill-opacity="1"><g transform="translate(253.73987, 232.55039)"><g/></g></g><path stroke-linecap="butt" transform="matrix(0.763116, 0, 0, 0.75, 94.03543, 228.800361)" fill="none" stroke-linejoin="miter" d="M -0.000359152 0.000560366 L 19.666129 0.000560366 " stroke="rgb(20.388794%, 15.289307%, 9.799194%)" stroke-width="1" stroke-opacity="1" stroke-miterlimit="4"/><path stroke-linecap="butt" transform="matrix(0.763116, 0, 0, 0.75, 267.535417, 228.800361)" fill="none" stroke-linejoin="miter" d="M -0.000342126 0.000560366 L 19.666146 0.000560366 " stroke="rgb(20.388794%, 15.289307%, 9.799194%)" stroke-width="1" stroke-opacity="1" stroke-miterlimit="4"/></svg>